# xmcd CD database file
#
# Track frame offsets:
#	150
#	15822
#	34252
#
# Disc length: 740 seconds
#
# Revision: 0
# Processed by: cddbd v1.5.1PL0 Copyright (c) Steve Scherf et al.
# Submitted via: CDex 1.51
#
DISCID=1402e203
DTITLE=Brownies - 君なしで?
DYEAR=1900
DGENRE=Rock
TTITLE0=君なしで?
TTITLE1=トムのロック
TTITLE2=雷雨　午前3時
EXTD=
EXTT0=
EXTT1=
EXTT2=
PLAYORDER=
